<svg id="visual" viewBox="0 0 450 900" width="450" height="900" xmlns="http://www.w3.org/2000/svg" xmlns:xlink="http://www.w3.org/1999/xlink" version="1.1"><rect x="0" y="0" width="450" height="900" fill="#FFFFFF"></rect><g transform="translate(19.100400890255187 12.036421150362912)"><path d="M110 -140.4C137.7 -107.8 151.9 -68.6 156.2 -29.7C160.4 9.1 154.7 47.6 137.3 80.8C119.9 114 90.9 142.1 54.5 159.5C18.1 177 -25.7 183.9 -66 172.9C-106.3 161.8 -143.2 132.9 -166.8 94.9C-190.3 56.9 -200.5 9.9 -193.6 -34.9C-186.6 -79.7 -162.4 -122.2 -127.3 -153.5C-92.1 -184.8 -46.1 -204.9 -2.5 -202C41.1 -199 82.3 -173.1 110 -140.4" fill="#E4F3F5"></path></g></svg>