<svg id="visual" viewBox="0 0 450 900" width="450" height="900" xmlns="http://www.w3.org/2000/svg" xmlns:xlink="http://www.w3.org/1999/xlink" version="1.1"><rect x="0" y="0" width="450" height="900" fill="#FFFFFF"></rect><g transform="translate(450.21840864147725 891.6816126270782)"><path d="M108.6 -127.2C141.7 -101.6 170.3 -68.3 175.8 -31.8C181.3 4.7 163.7 44.6 141.8 81.3C119.9 118 93.6 151.5 56.5 172.7C19.3 193.9 -28.8 202.7 -72 190.2C-115.1 177.8 -153.2 144.1 -168.5 104C-183.7 63.8 -176.1 17 -168.2 -30C-160.3 -77 -152.1 -124.3 -124.1 -150.8C-96 -177.4 -48 -183.2 -5.1 -177.1C37.7 -170.9 75.4 -152.9 108.6 -127.2" fill="#E4F3F5"></path></g></svg>