<svg id="visual" viewBox="0 0 450 900" width="450" height="900" xmlns="http://www.w3.org/2000/svg" xmlns:xlink="http://www.w3.org/1999/xlink" version="1.1"><rect x="0" y="0" width="450" height="900" fill="#002233"></rect><path d="M0 753L10.7 743.8C21.3 734.7 42.7 716.3 64.2 693.5C85.7 670.7 107.3 643.3 128.8 644C150.3 644.7 171.7 673.3 193 676C214.3 678.7 235.7 655.3 257 653C278.3 650.7 299.7 669.3 321.2 664.5C342.7 659.7 364.3 631.3 385.8 644.8C407.3 658.3 428.7 713.7 439.3 741.3L450 769L450 901L439.3 901C428.7 901 407.3 901 385.8 901C364.3 901 342.7 901 321.2 901C299.7 901 278.3 901 257 901C235.7 901 214.3 901 193 901C171.7 901 150.3 901 128.8 901C107.3 901 85.7 901 64.2 901C42.7 901 21.3 901 10.7 901L0 901Z" fill="#0066FF" stroke-linecap="round" stroke-linejoin="miter"></path></svg>