<svg id="visual" viewBox="0 0 450 900" width="450" height="900" xmlns="http://www.w3.org/2000/svg" xmlns:xlink="http://www.w3.org/1999/xlink" version="1.1"><rect x="0" y="0" width="450" height="900" fill="#002233"></rect><path d="M0 724L10.7 718.5C21.3 713 42.7 702 64.2 699.7C85.7 697.3 107.3 703.7 128.8 704C150.3 704.3 171.7 698.7 193 698.2C214.3 697.7 235.7 702.3 257 706.8C278.3 711.3 299.7 715.7 321.2 712.5C342.7 709.3 364.3 698.7 385.8 698.8C407.3 699 428.7 710 439.3 715.5L450 721L450 901L439.3 901C428.7 901 407.3 901 385.8 901C364.3 901 342.7 901 321.2 901C299.7 901 278.3 901 257 901C235.7 901 214.3 901 193 901C171.7 901 150.3 901 128.8 901C107.3 901 85.7 901 64.2 901C42.7 901 21.3 901 10.7 901L0 901Z" fill="#0066FF" stroke-linecap="round" stroke-linejoin="miter"></path></svg>