<svg id="visual" viewBox="0 0 540 960" width="540" height="960" xmlns="http://www.w3.org/2000/svg" xmlns:xlink="http://www.w3.org/1999/xlink" version="1.1"><rect x="0" y="0" width="540" height="960" fill="#fff"></rect><defs><linearGradient id="grad1_0" x1="0%" y1="100%" x2="100%" y2="0%"><stop offset="30%" stop-color="#ffffff" stop-opacity="1"></stop><stop offset="70%" stop-color="#ffffff" stop-opacity="1"></stop></linearGradient></defs><defs><linearGradient id="grad2_0" x1="0%" y1="100%" x2="100%" y2="0%"><stop offset="30%" stop-color="#ffffff" stop-opacity="1"></stop><stop offset="70%" stop-color="#ffffff" stop-opacity="1"></stop></linearGradient></defs><g transform="translate(540, 960)"><path d="M-162 0C-154.5 -19 -147.1 -38 -140.4 -58.2C-133.8 -78.3 -127.9 -99.6 -114.6 -114.6C-101.2 -129.5 -80.4 -138.2 -60.1 -145C-39.7 -151.9 -19.9 -157 0 -162L0 0Z" fill="#e4f3fe"></path></g><g transform="translate(0, 0)"><path d="M162 0C155.8 20.7 149.7 41.4 139.5 57.8C129.3 74.2 115.2 86.3 102.5 102.5C89.9 118.8 78.8 139.1 62 149.7C45.2 160.3 22.6 161.1 0 162L0 0Z" fill="#e4f3fe"></path></g></svg>