<svg id="visual" viewBox="0 0 450 900" width="450" height="900" xmlns="http://www.w3.org/2000/svg" xmlns:xlink="http://www.w3.org/1999/xlink" version="1.1"><rect x="0" y="0" width="450" height="900" fill="#fff"></rect><defs><linearGradient id="grad1_0" x1="0%" y1="100%" x2="100%" y2="0%"><stop offset="30%" stop-color="#ffffff" stop-opacity="1"></stop><stop offset="70%" stop-color="#ffffff" stop-opacity="1"></stop></linearGradient></defs><defs><linearGradient id="grad2_0" x1="0%" y1="100%" x2="100%" y2="0%"><stop offset="30%" stop-color="#ffffff" stop-opacity="1"></stop><stop offset="70%" stop-color="#ffffff" stop-opacity="1"></stop></linearGradient></defs><g transform="translate(450, 900)"><path d="M-135 0C-128.9 -16.8 -122.9 -33.7 -114.6 -47.5C-106.2 -61.2 -95.7 -71.9 -85.6 -85.6C-75.5 -99.3 -65.8 -116 -51.7 -124.7C-37.5 -133.5 -18.7 -134.2 0 -135L0 0Z" fill="#e4f3fe"></path></g><g transform="translate(0, 0)"><path d="M135 0C133.4 18.4 131.8 36.8 123.8 51.3C115.8 65.8 101.5 76.4 89.1 89.1C76.7 101.8 66.2 116.7 51.7 124.7C37.1 132.7 18.6 133.9 0 135L0 0Z" fill="#e4f3fe"></path></g></svg>