<svg xmlns="http://www.w3.org/2000/svg" version="1.1" xmlns:xlink="http://www.w3.org/1999/xlink" xmlns:svgjs="http://svgjs.com/svgjs" width="1440" height="560" preserveAspectRatio="none" viewBox="0 0 1440 560"><g mask="url(&quot;#SvgjsMask1038&quot;)" fill="none"><rect width="1440" height="560" x="0" y="0" fill="#0e2a47"></rect><path d="M0,345.068C64.862,345.596,124.122,313.102,178.188,277.266C231.653,241.829,280.384,198.547,308.236,140.767C336.429,82.28,343.001,16.265,335.062,-48.175C327.01,-113.533,302.417,-175.12,262.834,-227.747C221.246,-283.04,165.637,-323.131,104.251,-355.047C31.074,-393.093,-50.046,-461.543,-126.274,-430.051C-204.371,-397.787,-208.09,-287.837,-243.802,-211.256C-269.47,-156.213,-297.928,-104.193,-306.286,-44.037C-314.612,15.891,-314.521,77.178,-291.659,133.196C-268.223,190.621,-226.514,237.928,-176.334,274.381C-124.041,312.368,-64.632,344.542,0,345.068" fill="#091b2e"></path><path d="M1440 961.976C1530.925 975.717 1624.127 1013.325 1709.703 979.6669999999999 1800.801 943.837 1876.788 866.953 1912.914 775.972 1948.407 686.583 1937.432 583.176 1902.757 493.466 1871.741 413.222 1787.983 372.304 1731.73 307.214 1675.379 242.01 1654.363 135.82100000000003 1571.934 110.673 1489.54 85.536 1405.478 143.49099999999999 1329.767 184.582 1266.056 219.16000000000003 1225.82 279.223 1171.968 327.749 1108.74 384.724 997.1469999999999 410.34299999999996 985.6410000000001 494.673 974.115 579.148 1078.371 631.774 1120.3600000000001 705.975 1157.564 771.72 1159.085 858.143 1218.047 905.366 1278.874 954.0830000000001 1362.944 950.331 1440 961.976" fill="#133960"></path></g><defs><mask id="SvgjsMask1038"><rect width="1440" height="560" fill="#ffffff"></rect></mask></defs></svg>