<svg id="wave" style="transform:rotate(0deg); transition: 0.3s" viewBox="0 0 1440 490" version="1.1" xmlns="http://www.w3.org/2000/svg"><defs><linearGradient id="sw-gradient-0" x1="0" x2="0" y1="1" y2="0"><stop stop-color="rgba(62, 108.1, 243, 1)" offset="0%"></stop><stop stop-color="rgba(11, 246.734, 255, 1)" offset="100%"></stop></linearGradient></defs><path style="transform:translate(0, 0px); opacity:1" fill="url(#sw-gradient-0)" d="M0,392L120,392C240,392,480,392,720,359.3C960,327,1200,261,1440,196C1680,131,1920,65,2160,81.7C2400,98,2640,196,2880,220.5C3120,245,3360,196,3600,196C3840,196,4080,245,4320,294C4560,343,4800,392,5040,408.3C5280,425,5520,408,5760,334.8C6000,261,6240,131,6480,65.3C6720,0,6960,0,7200,65.3C7440,131,7680,261,7920,310.3C8160,359,8400,327,8640,294C8880,261,9120,229,9360,228.7C9600,229,9840,261,10080,302.2C10320,343,10560,392,10800,416.5C11040,441,11280,441,11520,408.3C11760,376,12000,310,12240,285.8C12480,261,12720,278,12960,253.2C13200,229,13440,163,13680,138.8C13920,114,14160,131,14400,147C14640,163,14880,180,15120,204.2C15360,229,15600,261,15840,245C16080,229,16320,163,16560,171.5C16800,180,17040,261,17160,302.2L17280,343L17280,490L17160,490C17040,490,16800,490,16560,490C16320,490,16080,490,15840,490C15600,490,15360,490,15120,490C14880,490,14640,490,14400,490C14160,490,13920,490,13680,490C13440,490,13200,490,12960,490C12720,490,12480,490,12240,490C12000,490,11760,490,11520,490C11280,490,11040,490,10800,490C10560,490,10320,490,10080,490C9840,490,9600,490,9360,490C9120,490,8880,490,8640,490C8400,490,8160,490,7920,490C7680,490,7440,490,7200,490C6960,490,6720,490,6480,490C6240,490,6000,490,5760,490C5520,490,5280,490,5040,490C4800,490,4560,490,4320,490C4080,490,3840,490,3600,490C3360,490,3120,490,2880,490C2640,490,2400,490,2160,490C1920,490,1680,490,1440,490C1200,490,960,490,720,490C480,490,240,490,120,490L0,490Z"></path></svg>