<svg xmlns="http://www.w3.org/2000/svg" width="192" height="192" fill="#ffffff" viewBox="0 0 256 256"><rect width="256" height="256" fill="none"></rect><line x1="16" y1="120" x2="240" y2="120" fill="none" stroke="#ffffff" stroke-linecap="round" stroke-linejoin="round" stroke-width="16"></line><path d="M216,216H192a8,8,0,0,1-8-8V184H72v24a8,8,0,0,1-8,8H40a8,8,0,0,1-8-8V120L61.9,52.8A8,8,0,0,1,69.2,48H186.8a8,8,0,0,1,7.3,4.8L224,120v88A8,8,0,0,1,216,216Z" fill="none" stroke="#ffffff" stroke-linecap="round" stroke-linejoin="round" stroke-width="16"></path></svg>